<?xml version="1.0" encoding="UTF-8" standalone="no"?>
<!-- Created with Inkscape (http://www.inkscape.org/) -->

<svg
   width="100mm"
   height="100mm"
   viewBox="0 0 100 100"
   version="1.1"
   id="svg1"
   inkscape:version="1.4 (86a8ad7, 2024-10-11)"
   sodipodi:docname=".obstacle_frames.svg"
   inkscape:export-batch-path="C:\Adam\Projects\Godot\one-button\assets\obstacle_frames"
   inkscape:export-batch-name=""
   xmlns:inkscape="http://www.inkscape.org/namespaces/inkscape"
   xmlns:sodipodi="http://sodipodi.sourceforge.net/DTD/sodipodi-0.dtd"
   xmlns="http://www.w3.org/2000/svg"
   xmlns:svg="http://www.w3.org/2000/svg">
  <sodipodi:namedview
     id="namedview1"
     pagecolor="#505050"
     bordercolor="#eeeeee"
     borderopacity="1"
     inkscape:showpageshadow="0"
     inkscape:pageopacity="0"
     inkscape:pagecheckerboard="0"
     inkscape:deskcolor="#505050"
     inkscape:document-units="mm"
     showgrid="true"
     inkscape:zoom="0.77682379"
     inkscape:cx="710.58586"
     inkscape:cy="668.10518"
     inkscape:window-width="1920"
     inkscape:window-height="1052"
     inkscape:window-x="-8"
     inkscape:window-y="-8"
     inkscape:window-maximized="1"
     inkscape:current-layer="layer1">
    <inkscape:grid
       id="grid1"
       units="mm"
       originx="0"
       originy="0"
       spacingx="0.99999999"
       spacingy="0.99999999"
       empcolor="#0099e5"
       empopacity="0.30196078"
       color="#0099e5"
       opacity="0.14901961"
       empspacing="10"
       enabled="true"
       visible="true" />
    <inkscape:page
       x="0"
       y="0"
       width="100"
       height="100"
       id="page1"
       margin="0"
       bleed="0"
       inkscape:label="01" />
    <inkscape:page
       x="110"
       y="0"
       width="100"
       height="100"
       id="page2"
       margin="0"
       bleed="0"
       inkscape:label="02" />
    <inkscape:page
       x="220"
       y="0"
       width="100"
       height="100"
       id="page3"
       margin="0"
       bleed="0"
       inkscape:label="03" />
    <inkscape:page
       x="-3.0079642e-14"
       y="110"
       width="100"
       height="100"
       id="page4"
       inkscape:label="04" />
    <inkscape:page
       x="110"
       y="110"
       width="100"
       height="100"
       id="page5"
       inkscape:label="05" />
    <inkscape:page
       x="220"
       y="110"
       width="100"
       height="96.401375"
       id="page6"
       inkscape:label="06" />
  </sodipodi:namedview>
  <defs
     id="defs1">
    <inkscape:path-effect
       effect="powerclip"
       message=""
       id="path-effect5"
       is_visible="true"
       lpeversion="1"
       inverse="true"
       flatten="false"
       hide_clip="false" />
    <inkscape:path-effect
       effect="powerclip"
       message=""
       id="path-effect4"
       is_visible="true"
       lpeversion="1"
       inverse="true"
       flatten="false"
       hide_clip="false" />
    <inkscape:path-effect
       effect="powerclip"
       message=""
       id="path-effect3"
       is_visible="true"
       lpeversion="1"
       inverse="true"
       flatten="false"
       hide_clip="false" />
    <inkscape:path-effect
       effect="powerclip"
       message=""
       id="path-effect2"
       is_visible="true"
       lpeversion="1"
       inverse="true"
       flatten="false"
       hide_clip="false" />
    <inkscape:path-effect
       effect="skeletal"
       id="path-effect11"
       is_visible="true"
       lpeversion="1"
       pattern="M 10.000002,-1.0583333e-6 7.083334e-7,19.999999 H 20 Z"
       copytype="repeated_stretched"
       prop_scale="0.47"
       scale_y_rel="false"
       spacing="0"
       normal_offset="-2.3"
       tang_offset="0"
       prop_units="false"
       vertical_pattern="false"
       hide_knot="false"
       fuse_tolerance="0" />
    <inkscape:path-effect
       effect="skeletal"
       id="path-effect11-2"
       is_visible="true"
       lpeversion="1"
       pattern="M 10.000002,-1.0583333e-6 7.083334e-7,19.999999 H 20 Z"
       copytype="repeated_stretched"
       prop_scale="0.47"
       scale_y_rel="false"
       spacing="0"
       normal_offset="-2.3"
       tang_offset="0"
       prop_units="false"
       vertical_pattern="false"
       hide_knot="false"
       fuse_tolerance="0" />
    <clipPath
       clipPathUnits="userSpaceOnUse"
       id="clipPath2">
      <ellipse
         style="display:none;fill:#ff0000;stroke:none;stroke-width:3.90001;stroke-linecap:round;stroke-linejoin:round"
         id="ellipse2"
         cx="160"
         cy="50"
         rx="10.000001"
         ry="10"
         d="M 170,50 A 10.000001,10 0 0 1 160,60 10.000001,10 0 0 1 150,50 10.000001,10 0 0 1 160,40 10.000001,10 0 0 1 170,50 Z" />
      <path
         id="lpe_path-effect2"
         style="fill:#ff0000;stroke:none;stroke-width:3.90001;stroke-linecap:round;stroke-linejoin:round"
         class="powerclip"
         d="m 115.87893,5.8789108 h 88.24214 V 94.121097 H 115.87893 Z M 170,50 a 10.000001,10 0 0 0 -10,-10 10.000001,10 0 0 0 -10,10 10.000001,10 0 0 0 10,10 10.000001,10 0 0 0 10,-10 z" />
    </clipPath>
    <inkscape:path-effect
       effect="skeletal"
       id="path-effect11-1"
       is_visible="true"
       lpeversion="1"
       pattern="M 10.000002,-1.0583333e-6 7.083334e-7,19.999999 H 20 Z"
       copytype="repeated_stretched"
       prop_scale="0.47"
       scale_y_rel="false"
       spacing="0"
       normal_offset="-2.3"
       tang_offset="0"
       prop_units="false"
       vertical_pattern="false"
       hide_knot="false"
       fuse_tolerance="0" />
    <clipPath
       clipPathUnits="userSpaceOnUse"
       id="clipPath3">
      <circle
         style="display:none;fill:#ff0000;stroke:none;stroke-width:3.90001;stroke-linecap:round;stroke-linejoin:round"
         id="circle3"
         cx="270"
         cy="50"
         r="20"
         d="M 290,50 A 20,20 0 0 1 270,70 20,20 0 0 1 250,50 20,20 0 0 1 270,30 20,20 0 0 1 290,50 Z" />
      <path
         id="lpe_path-effect3"
         style="fill:#ff0000;stroke:none;stroke-width:3.90001;stroke-linecap:round;stroke-linejoin:round"
         class="powerclip"
         d="m 225.8789,5.8789032 h 88.24214 V 94.121089 H 225.8789 Z M 290,50 a 20,20 0 0 0 -20,-20 20,20 0 0 0 -20,20 20,20 0 0 0 20,20 20,20 0 0 0 20,-20 z" />
    </clipPath>
    <inkscape:path-effect
       effect="skeletal"
       id="path-effect11-4"
       is_visible="true"
       lpeversion="1"
       pattern="M 10.000002,-1.0583333e-6 7.083334e-7,19.999999 H 20 Z"
       copytype="repeated_stretched"
       prop_scale="0.47"
       scale_y_rel="false"
       spacing="0"
       normal_offset="-2.3"
       tang_offset="0"
       prop_units="false"
       vertical_pattern="false"
       hide_knot="false"
       fuse_tolerance="0" />
    <clipPath
       clipPathUnits="userSpaceOnUse"
       id="clipPath4">
      <circle
         style="display:none;fill:#ff0000;stroke:none;stroke-width:3.90001;stroke-linecap:round;stroke-linejoin:round"
         id="circle4"
         cx="50"
         cy="160"
         r="30.000002"
         d="M 80.000002,160 A 30.000002,30.000002 0 0 1 50,190 30.000002,30.000002 0 0 1 19.999998,160 30.000002,30.000002 0 0 1 50,130 30.000002,30.000002 0 0 1 80.000002,160 Z" />
      <path
         id="lpe_path-effect4"
         style="fill:#ff0000;stroke:none;stroke-width:3.90001;stroke-linecap:round;stroke-linejoin:round"
         class="powerclip"
         d="m 5.878907,115.87891 h 88.242148 v 88.24218 H 5.878907 Z M 80.000002,160 A 30.000002,30.000002 0 0 0 50,130 30.000002,30.000002 0 0 0 19.999998,160 30.000002,30.000002 0 0 0 50,190 30.000002,30.000002 0 0 0 80.000002,160 Z" />
    </clipPath>
    <inkscape:path-effect
       effect="skeletal"
       id="path-effect11-6"
       is_visible="true"
       lpeversion="1"
       pattern="M 10.000002,-1.0583333e-6 7.083334e-7,19.999999 H 20 Z"
       copytype="repeated_stretched"
       prop_scale="0.47"
       scale_y_rel="false"
       spacing="0"
       normal_offset="-2.3"
       tang_offset="0"
       prop_units="false"
       vertical_pattern="false"
       hide_knot="false"
       fuse_tolerance="0" />
    <clipPath
       clipPathUnits="userSpaceOnUse"
       id="clipPath5">
      <ellipse
         style="display:none;fill:#ff0000;stroke:none;stroke-width:3.90001;stroke-linecap:round;stroke-linejoin:round"
         id="circle5"
         cx="50.000008"
         cy="159.99998"
         rx="36.601154"
         ry="36.601139"
         d="M 86.601162,159.99998 A 36.601154,36.601139 0 0 1 50.000008,196.60112 36.601154,36.601139 0 0 1 13.398853,159.99998 36.601154,36.601139 0 0 1 50.000008,123.39885 36.601154,36.601139 0 0 1 86.601162,159.99998 Z" />
      <path
         id="lpe_path-effect5"
         style="fill:#ff0000;stroke:none;stroke-width:3.90001;stroke-linecap:round;stroke-linejoin:round"
         class="powerclip"
         d="M -0.75141774,109.24857 H 100.75145 V 210.75142 H -0.75141774 Z M 86.601162,159.99998 a 36.601154,36.601139 0 0 0 -36.601154,-36.60113 36.601154,36.601139 0 0 0 -36.601155,36.60113 36.601154,36.601139 0 0 0 36.601155,36.60114 36.601154,36.601139 0 0 0 36.601154,-36.60114 z" />
    </clipPath>
  </defs>
  <g
     inkscape:label="Layer 1"
     inkscape:groupmode="layer"
     id="layer1">
    <path
       style="fill:#ffffff;stroke:#ffffff;stroke-width:3.56861;stroke-linecap:round;stroke-linejoin:round;stroke-dasharray:none;stroke-opacity:1"
       id="path8"
       inkscape:path-effect="#path-effect11"
       sodipodi:type="arc"
       sodipodi:cx="50.000008"
       sodipodi:cy="160"
       sodipodi:rx="40"
       sodipodi:ry="40"
       d="M 93.96715,171.85684 C 92.124153,167.17492 89.550588,163.1248 86.381008,160 c 0.07249,6.24959 -1.862482,12.39929 -5.169066,17.81323 4.312948,-1.09176 8.662523,-3.03237 12.755208,-5.95639 z m -12.037974,20.07235 c 0.573059,-4.99062 0.289129,-9.79378 -0.717234,-14.11596 -3.306584,5.41394 -7.984778,10.09214 -13.398723,13.39872 4.322182,1.00636 9.125342,1.2903 14.115957,0.71724 z m -20.072359,12.03796 c 2.924024,-4.09268 4.864639,-8.44226 5.956402,-12.7552 -5.413939,3.30657 -11.563628,5.24154 -17.813211,5.16905 l -1.6e-5,-1e-5 c 5e-6,1e-5 1e-5,2e-5 1.6e-5,3e-5 3.124789,3.16957 7.174898,5.74314 11.856809,7.58613 z m -23.713677,-2e-5 c 4.681926,-1.84299 8.732048,-4.41655 11.856846,-7.58613 -6.249591,0.0725 -12.399286,-1.86249 -17.813228,-5.16908 1.091757,4.31295 3.032366,8.66253 5.956382,12.75521 z M 18.070797,191.92915 c 4.990616,0.57306 9.793776,0.28913 14.115961,-0.71723 -5.413942,-3.30658 -10.092131,-7.98478 -13.398708,-13.39873 -1.006369,4.32218 -1.290305,9.12534 -0.717253,14.11596 z M 6.0328486,171.85678 c 4.0926804,2.92403 8.4422544,4.86465 12.7552014,5.95641 C 15.48148,172.39926 13.546515,166.24958 13.619008,160 l 2.8e-5,-3e-5 c -2.4e-5,1e-5 -4.8e-5,2e-5 -7.3e-5,3e-5 -3.169564,3.12478 -5.7431203,7.17488 -7.5861144,11.85678 z m 3.3e-5,-23.71367 c 1.8429904,4.68192 4.4165504,8.73205 7.5861254,11.85685 -0.07248,-6.24959 1.862499,-12.39929 5.16909,-17.81323 -4.312949,1.09176 -8.662528,3.03236 -12.7552154,5.95638 z M 18.070878,128.07077 c -0.573064,4.99062 -0.28914,9.79378 0.717219,14.11596 3.30659,-5.41394 7.984789,-10.09213 13.398738,-13.3987 -4.322181,-1.00637 -9.12534,-1.29031 -14.115957,-0.71726 z m 20.072374,-12.03794 c -2.924029,4.09268 -4.864649,8.44225 -5.956417,12.7552 5.41393,-3.30656 11.563604,-5.24152 17.813173,-5.16903 2.2e-5,0 4.4e-5,0 6.6e-5,0 -2.2e-5,-2e-5 -4.4e-5,-4e-5 -6.6e-5,-7e-5 -3.12478,-3.16955 -7.17487,-5.7431 -11.856756,-7.5861 z m 23.713677,5e-5 c -4.681928,1.84299 -8.732053,4.41655 -11.856855,7.58612 6.24959,-0.0725 12.399283,1.86251 17.813221,5.1691 -1.091752,-4.31295 -3.032356,-8.66253 -5.956366,-12.75522 z m 20.072329,12.03801 c -4.990615,-0.57307 -9.793776,-0.28915 -14.115963,0.71721 5.413939,3.30659 10.092123,7.9848 13.398694,13.39875 1.006374,-4.32218 1.290315,-9.12534 0.717269,-14.11596 z m 12.037925,20.07238 c -4.092678,-2.92403 -8.442249,-4.86465 -12.755194,-5.95642 3.306571,5.41395 5.24153,11.56365 5.169018,17.81324 3.16959,-3.12479 5.743167,-7.1749 7.586176,-11.85682 z"
       transform="matrix(1.0928617,0,0,1.0928622,-4.6431128,-124.85794)" />
    <ellipse
       style="fill:#ffffff;stroke:#ffffff;stroke-width:3.9;stroke-linecap:round;stroke-linejoin:round;stroke-dasharray:none;stroke-opacity:1"
       id="path11"
       cx="49.999981"
       cy="50.000004"
       rx="37.171074"
       ry="37.171093" />
    <path
       style="fill:#ffffff;stroke:#ffffff;stroke-width:3.56861;stroke-linecap:round;stroke-linejoin:round;stroke-dasharray:none;stroke-opacity:1"
       id="path8-5"
       inkscape:path-effect="#path-effect11-2"
       sodipodi:type="arc"
       sodipodi:cx="50.000008"
       sodipodi:cy="160"
       sodipodi:rx="40"
       sodipodi:ry="40"
       d="M 93.96715,171.85684 C 92.124153,167.17492 89.550588,163.1248 86.381008,160 c 0.07249,6.24959 -1.862482,12.39929 -5.169066,17.81323 4.312948,-1.09176 8.662523,-3.03237 12.755208,-5.95639 z m -12.037974,20.07235 c 0.573059,-4.99062 0.289129,-9.79378 -0.717234,-14.11596 -3.306584,5.41394 -7.984778,10.09214 -13.398723,13.39872 4.322182,1.00636 9.125342,1.2903 14.115957,0.71724 z m -20.072359,12.03796 c 2.924024,-4.09268 4.864639,-8.44226 5.956402,-12.7552 -5.413939,3.30657 -11.563628,5.24154 -17.813211,5.16905 l -1.6e-5,-1e-5 c 5e-6,1e-5 1e-5,2e-5 1.6e-5,3e-5 3.124789,3.16957 7.174898,5.74314 11.856809,7.58613 z m -23.713677,-2e-5 c 4.681926,-1.84299 8.732048,-4.41655 11.856846,-7.58613 -6.249591,0.0725 -12.399286,-1.86249 -17.813228,-5.16908 1.091757,4.31295 3.032366,8.66253 5.956382,12.75521 z M 18.070797,191.92915 c 4.990616,0.57306 9.793776,0.28913 14.115961,-0.71723 -5.413942,-3.30658 -10.092131,-7.98478 -13.398708,-13.39873 -1.006369,4.32218 -1.290305,9.12534 -0.717253,14.11596 z M 6.0328486,171.85678 c 4.0926804,2.92403 8.4422544,4.86465 12.7552014,5.95641 C 15.48148,172.39926 13.546515,166.24958 13.619008,160 l 2.8e-5,-3e-5 c -2.4e-5,1e-5 -4.8e-5,2e-5 -7.3e-5,3e-5 -3.169564,3.12478 -5.7431203,7.17488 -7.5861144,11.85678 z m 3.3e-5,-23.71367 c 1.8429904,4.68192 4.4165504,8.73205 7.5861254,11.85685 -0.07248,-6.24959 1.862499,-12.39929 5.16909,-17.81323 -4.312949,1.09176 -8.662528,3.03236 -12.7552154,5.95638 z M 18.070878,128.07077 c -0.573064,4.99062 -0.28914,9.79378 0.717219,14.11596 3.30659,-5.41394 7.984789,-10.09213 13.398738,-13.3987 -4.322181,-1.00637 -9.12534,-1.29031 -14.115957,-0.71726 z m 20.072374,-12.03794 c -2.924029,4.09268 -4.864649,8.44225 -5.956417,12.7552 5.41393,-3.30656 11.563604,-5.24152 17.813173,-5.16903 2.2e-5,0 4.4e-5,0 6.6e-5,0 -2.2e-5,-2e-5 -4.4e-5,-4e-5 -6.6e-5,-7e-5 -3.12478,-3.16955 -7.17487,-5.7431 -11.856756,-7.5861 z m 23.713677,5e-5 c -4.681928,1.84299 -8.732053,4.41655 -11.856855,7.58612 6.24959,-0.0725 12.399283,1.86251 17.813221,5.1691 -1.091752,-4.31295 -3.032356,-8.66253 -5.956366,-12.75522 z m 20.072329,12.03801 c -4.990615,-0.57307 -9.793776,-0.28915 -14.115963,0.71721 5.413939,3.30659 10.092123,7.9848 13.398694,13.39875 1.006374,-4.32218 1.290315,-9.12534 0.717269,-14.11596 z m 12.037925,20.07238 c -4.092678,-2.92403 -8.442249,-4.86465 -12.755194,-5.95642 3.306571,5.41395 5.24153,11.56365 5.169018,17.81324 3.16959,-3.12479 5.743167,-7.1749 7.586176,-11.85682 z"
       transform="matrix(1.0928617,0,0,1.0928622,105.35691,-124.85794)" />
    <path
       style="fill:#ffffff;stroke:#ffffff;stroke-width:3.9;stroke-linecap:round;stroke-linejoin:round;stroke-dasharray:none;stroke-opacity:1"
       id="path11-5"
       clip-path="url(#clipPath2)"
       inkscape:path-effect="#path-effect2"
       sodipodi:type="arc"
       sodipodi:cx="160"
       sodipodi:cy="50.000004"
       sodipodi:rx="37.171074"
       sodipodi:ry="37.171093"
       d="M 197.17107,50.000004 A 37.171074,37.171093 0 0 1 160,87.171097 37.171074,37.171093 0 0 1 122.82893,50.000004 37.171074,37.171093 0 0 1 160,12.828911 37.171074,37.171093 0 0 1 197.17107,50.000004 Z" />
    <path
       style="fill:#ffffff;stroke:#ffffff;stroke-width:3.56861;stroke-linecap:round;stroke-linejoin:round;stroke-dasharray:none;stroke-opacity:1"
       id="path8-52"
       inkscape:path-effect="#path-effect11-1"
       sodipodi:type="arc"
       sodipodi:cx="50.000008"
       sodipodi:cy="160"
       sodipodi:rx="40"
       sodipodi:ry="40"
       d="M 93.96715,171.85684 C 92.124153,167.17492 89.550588,163.1248 86.381008,160 c 0.07249,6.24959 -1.862482,12.39929 -5.169066,17.81323 4.312948,-1.09176 8.662523,-3.03237 12.755208,-5.95639 z m -12.037974,20.07235 c 0.573059,-4.99062 0.289129,-9.79378 -0.717234,-14.11596 -3.306584,5.41394 -7.984778,10.09214 -13.398723,13.39872 4.322182,1.00636 9.125342,1.2903 14.115957,0.71724 z m -20.072359,12.03796 c 2.924024,-4.09268 4.864639,-8.44226 5.956402,-12.7552 -5.413939,3.30657 -11.563628,5.24154 -17.813211,5.16905 l -1.6e-5,-1e-5 c 5e-6,1e-5 1e-5,2e-5 1.6e-5,3e-5 3.124789,3.16957 7.174898,5.74314 11.856809,7.58613 z m -23.713677,-2e-5 c 4.681926,-1.84299 8.732048,-4.41655 11.856846,-7.58613 -6.249591,0.0725 -12.399286,-1.86249 -17.813228,-5.16908 1.091757,4.31295 3.032366,8.66253 5.956382,12.75521 z M 18.070797,191.92915 c 4.990616,0.57306 9.793776,0.28913 14.115961,-0.71723 -5.413942,-3.30658 -10.092131,-7.98478 -13.398708,-13.39873 -1.006369,4.32218 -1.290305,9.12534 -0.717253,14.11596 z M 6.0328486,171.85678 c 4.0926804,2.92403 8.4422544,4.86465 12.7552014,5.95641 C 15.48148,172.39926 13.546515,166.24958 13.619008,160 l 2.8e-5,-3e-5 c -2.4e-5,1e-5 -4.8e-5,2e-5 -7.3e-5,3e-5 -3.169564,3.12478 -5.7431203,7.17488 -7.5861144,11.85678 z m 3.3e-5,-23.71367 c 1.8429904,4.68192 4.4165504,8.73205 7.5861254,11.85685 -0.07248,-6.24959 1.862499,-12.39929 5.16909,-17.81323 -4.312949,1.09176 -8.662528,3.03236 -12.7552154,5.95638 z M 18.070878,128.07077 c -0.573064,4.99062 -0.28914,9.79378 0.717219,14.11596 3.30659,-5.41394 7.984789,-10.09213 13.398738,-13.3987 -4.322181,-1.00637 -9.12534,-1.29031 -14.115957,-0.71726 z m 20.072374,-12.03794 c -2.924029,4.09268 -4.864649,8.44225 -5.956417,12.7552 5.41393,-3.30656 11.563604,-5.24152 17.813173,-5.16903 2.2e-5,0 4.4e-5,0 6.6e-5,0 -2.2e-5,-2e-5 -4.4e-5,-4e-5 -6.6e-5,-7e-5 -3.12478,-3.16955 -7.17487,-5.7431 -11.856756,-7.5861 z m 23.713677,5e-5 c -4.681928,1.84299 -8.732053,4.41655 -11.856855,7.58612 6.24959,-0.0725 12.399283,1.86251 17.813221,5.1691 -1.091752,-4.31295 -3.032356,-8.66253 -5.956366,-12.75522 z m 20.072329,12.03801 c -4.990615,-0.57307 -9.793776,-0.28915 -14.115963,0.71721 5.413939,3.30659 10.092123,7.9848 13.398694,13.39875 1.006374,-4.32218 1.290315,-9.12534 0.717269,-14.11596 z m 12.037925,20.07238 c -4.092678,-2.92403 -8.442249,-4.86465 -12.755194,-5.95642 3.306571,5.41395 5.24153,11.56365 5.169018,17.81324 3.16959,-3.12479 5.743167,-7.1749 7.586176,-11.85682 z"
       transform="matrix(1.0928617,0,0,1.0928622,215.35689,-124.85794)" />
    <path
       style="fill:#ffffff;stroke:#ffffff;stroke-width:3.9;stroke-linecap:round;stroke-linejoin:round;stroke-dasharray:none;stroke-opacity:1"
       id="path11-7"
       clip-path="url(#clipPath3)"
       inkscape:path-effect="#path-effect3"
       sodipodi:type="arc"
       sodipodi:cx="269.99997"
       sodipodi:cy="49.999996"
       sodipodi:rx="37.171074"
       sodipodi:ry="37.171093"
       d="M 307.17104,49.999996 A 37.171074,37.171093 0 0 1 269.99997,87.171089 37.171074,37.171093 0 0 1 232.8289,49.999996 37.171074,37.171093 0 0 1 269.99997,12.828903 37.171074,37.171093 0 0 1 307.17104,49.999996 Z" />
    <path
       style="fill:#ffffff;stroke:#ffffff;stroke-width:3.56861;stroke-linecap:round;stroke-linejoin:round;stroke-dasharray:none;stroke-opacity:1"
       id="path8-3"
       inkscape:path-effect="#path-effect11-4"
       sodipodi:type="arc"
       sodipodi:cx="50.000008"
       sodipodi:cy="160"
       sodipodi:rx="40"
       sodipodi:ry="40"
       d="M 93.96715,171.85684 C 92.124153,167.17492 89.550588,163.1248 86.381008,160 c 0.07249,6.24959 -1.862482,12.39929 -5.169066,17.81323 4.312948,-1.09176 8.662523,-3.03237 12.755208,-5.95639 z m -12.037974,20.07235 c 0.573059,-4.99062 0.289129,-9.79378 -0.717234,-14.11596 -3.306584,5.41394 -7.984778,10.09214 -13.398723,13.39872 4.322182,1.00636 9.125342,1.2903 14.115957,0.71724 z m -20.072359,12.03796 c 2.924024,-4.09268 4.864639,-8.44226 5.956402,-12.7552 -5.413939,3.30657 -11.563628,5.24154 -17.813211,5.16905 l -1.6e-5,-1e-5 c 5e-6,1e-5 1e-5,2e-5 1.6e-5,3e-5 3.124789,3.16957 7.174898,5.74314 11.856809,7.58613 z m -23.713677,-2e-5 c 4.681926,-1.84299 8.732048,-4.41655 11.856846,-7.58613 -6.249591,0.0725 -12.399286,-1.86249 -17.813228,-5.16908 1.091757,4.31295 3.032366,8.66253 5.956382,12.75521 z M 18.070797,191.92915 c 4.990616,0.57306 9.793776,0.28913 14.115961,-0.71723 -5.413942,-3.30658 -10.092131,-7.98478 -13.398708,-13.39873 -1.006369,4.32218 -1.290305,9.12534 -0.717253,14.11596 z M 6.0328486,171.85678 c 4.0926804,2.92403 8.4422544,4.86465 12.7552014,5.95641 C 15.48148,172.39926 13.546515,166.24958 13.619008,160 l 2.8e-5,-3e-5 c -2.4e-5,1e-5 -4.8e-5,2e-5 -7.3e-5,3e-5 -3.169564,3.12478 -5.7431203,7.17488 -7.5861144,11.85678 z m 3.3e-5,-23.71367 c 1.8429904,4.68192 4.4165504,8.73205 7.5861254,11.85685 -0.07248,-6.24959 1.862499,-12.39929 5.16909,-17.81323 -4.312949,1.09176 -8.662528,3.03236 -12.7552154,5.95638 z M 18.070878,128.07077 c -0.573064,4.99062 -0.28914,9.79378 0.717219,14.11596 3.30659,-5.41394 7.984789,-10.09213 13.398738,-13.3987 -4.322181,-1.00637 -9.12534,-1.29031 -14.115957,-0.71726 z m 20.072374,-12.03794 c -2.924029,4.09268 -4.864649,8.44225 -5.956417,12.7552 5.41393,-3.30656 11.563604,-5.24152 17.813173,-5.16903 2.2e-5,0 4.4e-5,0 6.6e-5,0 -2.2e-5,-2e-5 -4.4e-5,-4e-5 -6.6e-5,-7e-5 -3.12478,-3.16955 -7.17487,-5.7431 -11.856756,-7.5861 z m 23.713677,5e-5 c -4.681928,1.84299 -8.732053,4.41655 -11.856855,7.58612 6.24959,-0.0725 12.399283,1.86251 17.813221,5.1691 -1.091752,-4.31295 -3.032356,-8.66253 -5.956366,-12.75522 z m 20.072329,12.03801 c -4.990615,-0.57307 -9.793776,-0.28915 -14.115963,0.71721 5.413939,3.30659 10.092123,7.9848 13.398694,13.39875 1.006374,-4.32218 1.290315,-9.12534 0.717269,-14.11596 z m 12.037925,20.07238 c -4.092678,-2.92403 -8.442249,-4.86465 -12.755194,-5.95642 3.306571,5.41395 5.24153,11.56365 5.169018,17.81324 3.16959,-3.12479 5.743167,-7.1749 7.586176,-11.85682 z"
       transform="matrix(1.0928617,0,0,1.0928622,-4.6431128,-14.857944)" />
    <path
       style="fill:#ffffff;stroke:#ffffff;stroke-width:3.9;stroke-linecap:round;stroke-linejoin:round;stroke-dasharray:none;stroke-opacity:1"
       id="path11-2"
       clip-path="url(#clipPath4)"
       inkscape:path-effect="#path-effect4"
       sodipodi:type="arc"
       sodipodi:cx="49.999981"
       sodipodi:cy="160"
       sodipodi:rx="37.171074"
       sodipodi:ry="37.171093"
       d="M 87.171055,160 A 37.171074,37.171093 0 0 1 49.999981,197.17109 37.171074,37.171093 0 0 1 12.828907,160 37.171074,37.171093 0 0 1 49.999981,122.82891 37.171074,37.171093 0 0 1 87.171055,160 Z" />
    <path
       style="fill:#ffffff;stroke:#ffffff;stroke-width:3.56861;stroke-linecap:round;stroke-linejoin:round;stroke-dasharray:none;stroke-opacity:1"
       id="path8-57"
       inkscape:path-effect="#path-effect11-6;#path-effect5"
       sodipodi:type="arc"
       sodipodi:cx="50.000008"
       sodipodi:cy="160"
       sodipodi:rx="40"
       sodipodi:ry="40"
       d="M 93.96715,171.85684 C 92.124153,167.17492 89.550588,163.1248 86.381008,160 c 0.07249,6.24959 -1.862482,12.39929 -5.169066,17.81323 4.312948,-1.09176 8.662523,-3.03237 12.755208,-5.95639 z m -12.037974,20.07235 c 0.573059,-4.99062 0.289129,-9.79378 -0.717234,-14.11596 -3.306584,5.41394 -7.984778,10.09214 -13.398723,13.39872 4.322182,1.00636 9.125342,1.2903 14.115957,0.71724 z m -20.072359,12.03796 c 2.924024,-4.09268 4.864639,-8.44226 5.956402,-12.7552 -5.413939,3.30657 -11.563628,5.24154 -17.813211,5.16905 l -1.6e-5,-1e-5 c 5e-6,1e-5 1e-5,2e-5 1.6e-5,3e-5 3.124789,3.16957 7.174898,5.74314 11.856809,7.58613 z m -23.713677,-2e-5 c 4.681926,-1.84299 8.732048,-4.41655 11.856846,-7.58613 -6.249591,0.0725 -12.399286,-1.86249 -17.813228,-5.16908 1.091757,4.31295 3.032366,8.66253 5.956382,12.75521 z M 18.070797,191.92915 c 4.990616,0.57306 9.793776,0.28913 14.115961,-0.71723 -5.413942,-3.30658 -10.092131,-7.98478 -13.398708,-13.39873 -1.006369,4.32218 -1.290305,9.12534 -0.717253,14.11596 z M 6.0328486,171.85678 c 4.0926804,2.92403 8.4422544,4.86465 12.7552014,5.95641 C 15.48148,172.39926 13.546515,166.24958 13.619008,160 l 2.8e-5,-3e-5 c -2.4e-5,1e-5 -4.8e-5,2e-5 -7.3e-5,3e-5 -3.169564,3.12478 -5.7431203,7.17488 -7.5861144,11.85678 z m 3.3e-5,-23.71367 c 1.8429904,4.68192 4.4165504,8.73205 7.5861254,11.85685 -0.07248,-6.24959 1.862499,-12.39929 5.16909,-17.81323 -4.312949,1.09176 -8.662528,3.03236 -12.7552154,5.95638 z M 18.070878,128.07077 c -0.573064,4.99062 -0.28914,9.79378 0.717219,14.11596 3.30659,-5.41394 7.984789,-10.09213 13.398738,-13.3987 -4.322181,-1.00637 -9.12534,-1.29031 -14.115957,-0.71726 z m 20.072374,-12.03794 c -2.924029,4.09268 -4.864649,8.44225 -5.956417,12.7552 5.41393,-3.30656 11.563604,-5.24152 17.813173,-5.16903 2.2e-5,0 4.4e-5,0 6.6e-5,0 -2.2e-5,-2e-5 -4.4e-5,-4e-5 -6.6e-5,-7e-5 -3.12478,-3.16955 -7.17487,-5.7431 -11.856756,-7.5861 z m 23.713677,5e-5 c -4.681928,1.84299 -8.732053,4.41655 -11.856855,7.58612 6.24959,-0.0725 12.399283,1.86251 17.813221,5.1691 -1.091752,-4.31295 -3.032356,-8.66253 -5.956366,-12.75522 z m 20.072329,12.03801 c -4.990615,-0.57307 -9.793776,-0.28915 -14.115963,0.71721 5.413939,3.30659 10.092123,7.9848 13.398694,13.39875 1.006374,-4.32218 1.290315,-9.12534 0.717269,-14.11596 z m 12.037925,20.07238 c -4.092678,-2.92403 -8.442249,-4.86465 -12.755194,-5.95642 3.306571,5.41395 5.24153,11.56365 5.169018,17.81324 3.16959,-3.12479 5.743167,-7.1749 7.586176,-11.85682 z"
       transform="matrix(1.0928617,0,0,1.0928622,105.35691,-14.857939)"
       clip-path="url(#clipPath5)" />
  </g>
</svg>
