<?xml version="1.0" encoding="UTF-8" standalone="no"?>
<!-- Created with Inkscape (http://www.inkscape.org/) -->

<svg
   width="100mm"
   height="100mm"
   viewBox="0 0 100 100"
   version="1.1"
   id="svg1"
   sodipodi:docname=".drawings.svg"
   inkscape:version="1.4 (86a8ad7, 2024-10-11)"
   inkscape:export-batch-path="C:\Adam\Projects\Godot\one-button\assets"
   inkscape:export-batch-name=""
   xmlns:inkscape="http://www.inkscape.org/namespaces/inkscape"
   xmlns:sodipodi="http://sodipodi.sourceforge.net/DTD/sodipodi-0.dtd"
   xmlns="http://www.w3.org/2000/svg"
   xmlns:svg="http://www.w3.org/2000/svg">
  <sodipodi:namedview
     id="namedview1"
     pagecolor="#505050"
     bordercolor="#eeeeee"
     borderopacity="1"
     inkscape:showpageshadow="0"
     inkscape:pageopacity="0"
     inkscape:pagecheckerboard="0"
     inkscape:deskcolor="#505050"
     inkscape:document-units="mm"
     inkscape:zoom="0.75722503"
     inkscape:cx="72.633627"
     inkscape:cy="614.0843"
     inkscape:window-width="1920"
     inkscape:window-height="1052"
     inkscape:window-x="-8"
     inkscape:window-y="-8"
     inkscape:window-maximized="1"
     inkscape:current-layer="g11"
     showgrid="true">
    <inkscape:page
       x="0"
       y="0"
       width="100"
       height="100"
       id="page4"
       margin="0"
       bleed="0"
       inkscape:label="dome" />
    <inkscape:grid
       id="grid5"
       units="mm"
       originx="0"
       originy="0"
       spacingx="0.99999999"
       spacingy="0.99999999"
       empcolor="#0099e5"
       empopacity="0.30196078"
       color="#0099e5"
       opacity="0.14901961"
       empspacing="10"
       enabled="true"
       visible="true" />
    <inkscape:page
       x="120.00001"
       y="-2.8610229e-06"
       width="157.2"
       height="157.2"
       id="page5"
       margin="0"
       bleed="0"
       inkscape:label="blocker" />
    <inkscape:page
       x="7.6293945e-06"
       y="110"
       width="100"
       height="100"
       id="page1"
       inkscape:label="obstacle" />
  </sodipodi:namedview>
  <defs
     id="defs1">
    <inkscape:path-effect
       effect="offset"
       id="path-effect12"
       is_visible="true"
       lpeversion="1.3"
       linejoin_type="miter"
       unit="mm"
       offset="2.1"
       miter_limit="4"
       attempt_force_join="false"
       update_on_knot_move="true" />
    <inkscape:path-effect
       effect="skeletal"
       id="path-effect11"
       is_visible="true"
       lpeversion="1"
       pattern="M 10.000002,-1.0583333e-6 7.083334e-7,19.999999 H 20 Z"
       copytype="repeated_stretched"
       prop_scale="0.47"
       scale_y_rel="false"
       spacing="0"
       normal_offset="-2.3"
       tang_offset="0"
       prop_units="false"
       vertical_pattern="false"
       hide_knot="false"
       fuse_tolerance="0" />
    <inkscape:path-effect
       effect="skeletal"
       id="path-effect1"
       is_visible="true"
       lpeversion="1"
       pattern="M 0,0 H 1"
       copytype="single_stretched"
       prop_scale="1"
       scale_y_rel="false"
       spacing="0"
       normal_offset="0"
       tang_offset="0"
       prop_units="false"
       vertical_pattern="false"
       hide_knot="false"
       fuse_tolerance="0" />
    <inkscape:path-effect
       effect="skeletal"
       id="path-effect10"
       is_visible="true"
       lpeversion="1"
       pattern="m -58.500002,7.3541714 5.0892,11.3769606 5.345194,-11.3492606"
       copytype="repeated_stretched"
       prop_scale="1"
       scale_y_rel="false"
       spacing="0"
       normal_offset="0"
       tang_offset="0"
       prop_units="false"
       vertical_pattern="false"
       hide_knot="false"
       fuse_tolerance="0" />
    <inkscape:path-effect
       effect="copy_rotate"
       starting_point="0,0"
       origin="-80,124.9"
       id="path-effect9"
       is_visible="true"
       lpeversion="1.2"
       lpesatellites=""
       method="normal"
       num_copies="9"
       starting_angle="0"
       rotation_angle="40"
       gap="0"
       copies_to_360="true"
       mirror_copies="false"
       split_items="false"
       link_styles="false" />
    <inkscape:path-effect
       effect="copy_rotate"
       starting_point="0,0"
       origin="-61.5,135"
       id="path-effect8"
       is_visible="true"
       lpeversion="1.2"
       lpesatellites=""
       method="normal"
       num_copies="6"
       starting_angle="0"
       rotation_angle="60"
       gap="0"
       copies_to_360="true"
       mirror_copies="false"
       split_items="false"
       link_styles="false" />
    <inkscape:path-effect
       effect="copy_rotate"
       starting_point="0,0"
       origin="12.371143,170"
       id="path-effect7"
       is_visible="true"
       lpeversion="1.2"
       lpesatellites=""
       method="normal"
       num_copies="6"
       starting_angle="0"
       rotation_angle="60"
       gap="-0.01"
       copies_to_360="true"
       mirror_copies="false"
       split_items="false"
       link_styles="false" />
    <inkscape:path-effect
       effect="mirror_symmetry"
       start_point="48.5,0"
       end_point="48.5,0.8"
       center_point="48.5,0.4"
       id="path-effect4"
       is_visible="true"
       lpeversion="1.2"
       lpesatellites=""
       mode="free"
       discard_orig_path="false"
       fuse_paths="false"
       oposite_fuse="false"
       split_items="false"
       split_open="false"
       link_styles="false" />
    <inkscape:path-effect
       effect="mirror_symmetry"
       start_point="48.5,0"
       end_point="48.5,0.8"
       center_point="48.5,0.4"
       id="path-effect4-5"
       is_visible="true"
       lpeversion="1.2"
       lpesatellites=""
       mode="free"
       discard_orig_path="false"
       fuse_paths="false"
       oposite_fuse="false"
       split_items="false"
       split_open="false"
       link_styles="false" />
    <pattern
       patternUnits="userSpaceOnUse"
       width="49.133862"
       height="49.133858"
       patternTransform="translate(-232.44095,485.66929)"
       preserveAspectRatio="xMidYMid"
       id="pattern7">
      <path
         style="fill:none;stroke:#ffffff;stroke-width:11.3386;stroke-linecap:round;stroke-linejoin:round;stroke-dasharray:none"
         d="M 5.6692913,5.6692913 43.464571,43.464567"
         id="path6" />
      <path
         style="fill:none;stroke:#ffffff;stroke-width:11.3386;stroke-linecap:round;stroke-linejoin:round;stroke-dasharray:none"
         d="M 43.464571,5.6692913 5.6692913,43.464567"
         id="path7" />
    </pattern>
    <inkscape:path-effect
       effect="mirror_symmetry"
       start_point="48.5,0"
       end_point="48.5,0.8"
       center_point="48.5,0.4"
       id="path-effect4-4"
       is_visible="true"
       lpeversion="1.2"
       lpesatellites=""
       mode="free"
       discard_orig_path="false"
       fuse_paths="false"
       oposite_fuse="false"
       split_items="false"
       split_open="false"
       link_styles="false" />
    <inkscape:path-effect
       effect="mirror_symmetry"
       start_point="48.5,0"
       end_point="48.5,0.8"
       center_point="48.5,0.4"
       id="path-effect4-5-8"
       is_visible="true"
       lpeversion="1.2"
       lpesatellites=""
       mode="free"
       discard_orig_path="false"
       fuse_paths="false"
       oposite_fuse="false"
       split_items="false"
       split_open="false"
       link_styles="false" />
  </defs>
  <g
     inkscape:label="Layer 1"
     inkscape:groupmode="layer"
     id="layer1">
    <circle
       style="fill:none;stroke:#ffffff;stroke-width:3;stroke-linecap:round;stroke-linejoin:round;stroke-dasharray:none"
       id="path1"
       cx="50"
       cy="50"
       r="48.5" />
    <path
       style="fill:none;stroke:#ffffff;stroke-width:3;stroke-linecap:round;stroke-linejoin:round;stroke-dasharray:none"
       d="M 50,1.5 V 98.499998"
       id="path2" />
    <path
       style="fill:none;stroke:#ffffff;stroke-width:3;stroke-linecap:round;stroke-linejoin:round;stroke-dasharray:none"
       d="M 1.5,50 H 98.499998"
       id="path3" />
    <path
       style="fill:none;stroke:#ffffff;stroke-width:3;stroke-linecap:round;stroke-linejoin:round;stroke-dasharray:none"
       d="m 32.867753,4.6267023 c -14.824286,30.2488657 -14.824286,60.4977307 0,90.7465947 M 64.132247,4.6267023 c 14.824286,30.2488657 14.824286,60.4977307 0,90.7465947"
       id="path4"
       sodipodi:nodetypes="cc"
       inkscape:original-d="m 32.867753,4.6267023 c -14.824286,30.2488657 -14.824286,60.4977307 0,90.7465947"
       inkscape:path-effect="#path-effect4"
       transform="translate(2.1166667)" />
    <path
       style="fill:none;stroke:#ffffff;stroke-width:3;stroke-linecap:round;stroke-linejoin:round;stroke-dasharray:none"
       d="m 32.867753,4.6267023 c -14.824286,30.2488657 -14.824286,60.4977307 0,90.7465947 M 64.132247,4.6267023 c 14.824286,30.2488657 14.824286,60.4977307 0,90.7465947"
       id="path4-1"
       sodipodi:nodetypes="cc"
       inkscape:original-d="m 32.867753,4.6267023 c -14.824286,30.2488657 -14.824286,60.4977307 0,90.7465947"
       inkscape:path-effect="#path-effect4-5"
       transform="rotate(90,49.080847,50.947432)" />
    <circle
       style="fill:none;stroke:#ffffff;stroke-width:12.4;stroke-linecap:round;stroke-linejoin:round;stroke-dasharray:none"
       id="path1-2"
       cx="198.60001"
       cy="78.599998"
       r="72.400002" />
    <path
       style="fill:none;stroke:none;stroke-width:12.4;stroke-linecap:round;stroke-linejoin:round;stroke-dasharray:none;stroke-opacity:1"
       d="m 120.00001,-2.8610229e-6 h 157.2 L 200.00001,69.999997 Z"
       id="path5" />
    <path
       style="fill:#ffffff;stroke-width:12.4;stroke-linecap:round;stroke-linejoin:round"
       d="m -39.999993,110 -10.000001,20 h 19.999999 z"
       id="path9" />
    <g
       id="g11"
       style="stroke:#ffffff;stroke-opacity:1;stroke-width:3.9;stroke-dasharray:none;fill:#ffffff">
      <path
         style="fill:#ffffff;stroke:#ffffff;stroke-width:3.56861;stroke-linecap:round;stroke-linejoin:round;stroke-dasharray:none;stroke-opacity:1"
         id="path8"
         inkscape:path-effect="#path-effect11"
         sodipodi:type="arc"
         sodipodi:cx="50.000008"
         sodipodi:cy="160"
         sodipodi:rx="40"
         sodipodi:ry="40"
         d="M 93.96715,171.85684 C 92.124153,167.17492 89.550588,163.1248 86.381008,160 c 0.07249,6.24959 -1.862482,12.39929 -5.169066,17.81323 4.312948,-1.09176 8.662523,-3.03237 12.755208,-5.95639 z m -12.037974,20.07235 c 0.573059,-4.99062 0.289129,-9.79378 -0.717234,-14.11596 -3.306584,5.41394 -7.984778,10.09214 -13.398723,13.39872 4.322182,1.00636 9.125342,1.2903 14.115957,0.71724 z m -20.072359,12.03796 c 2.924024,-4.09268 4.864639,-8.44226 5.956402,-12.7552 -5.413939,3.30657 -11.563628,5.24154 -17.813211,5.16905 l -1.6e-5,-1e-5 c 5e-6,1e-5 1e-5,2e-5 1.6e-5,3e-5 3.124789,3.16957 7.174898,5.74314 11.856809,7.58613 z m -23.713677,-2e-5 c 4.681926,-1.84299 8.732048,-4.41655 11.856846,-7.58613 -6.249591,0.0725 -12.399286,-1.86249 -17.813228,-5.16908 1.091757,4.31295 3.032366,8.66253 5.956382,12.75521 z M 18.070797,191.92915 c 4.990616,0.57306 9.793776,0.28913 14.115961,-0.71723 -5.413942,-3.30658 -10.092131,-7.98478 -13.398708,-13.39873 -1.006369,4.32218 -1.290305,9.12534 -0.717253,14.11596 z M 6.0328486,171.85678 c 4.0926804,2.92403 8.4422544,4.86465 12.7552014,5.95641 C 15.48148,172.39926 13.546515,166.24958 13.619008,160 l 2.8e-5,-3e-5 c -2.4e-5,1e-5 -4.8e-5,2e-5 -7.3e-5,3e-5 -3.169564,3.12478 -5.7431203,7.17488 -7.5861144,11.85678 z m 3.3e-5,-23.71367 c 1.8429904,4.68192 4.4165504,8.73205 7.5861254,11.85685 -0.07248,-6.24959 1.862499,-12.39929 5.16909,-17.81323 -4.312949,1.09176 -8.662528,3.03236 -12.7552154,5.95638 z M 18.070878,128.07077 c -0.573064,4.99062 -0.28914,9.79378 0.717219,14.11596 3.30659,-5.41394 7.984789,-10.09213 13.398738,-13.3987 -4.322181,-1.00637 -9.12534,-1.29031 -14.115957,-0.71726 z m 20.072374,-12.03794 c -2.924029,4.09268 -4.864649,8.44225 -5.956417,12.7552 5.41393,-3.30656 11.563604,-5.24152 17.813173,-5.16903 2.2e-5,0 4.4e-5,0 6.6e-5,0 -2.2e-5,-2e-5 -4.4e-5,-4e-5 -6.6e-5,-7e-5 -3.12478,-3.16955 -7.17487,-5.7431 -11.856756,-7.5861 z m 23.713677,5e-5 c -4.681928,1.84299 -8.732053,4.41655 -11.856855,7.58612 6.24959,-0.0725 12.399283,1.86251 17.813221,5.1691 -1.091752,-4.31295 -3.032356,-8.66253 -5.956366,-12.75522 z m 20.072329,12.03801 c -4.990615,-0.57307 -9.793776,-0.28915 -14.115963,0.71721 5.413939,3.30659 10.092123,7.9848 13.398694,13.39875 1.006374,-4.32218 1.290315,-9.12534 0.717269,-14.11596 z m 12.037925,20.07238 c -4.092678,-2.92403 -8.442249,-4.86465 -12.755194,-5.95642 3.306571,5.41395 5.24153,11.56365 5.169018,17.81324 3.16959,-3.12479 5.743167,-7.1749 7.586176,-11.85682 z"
         transform="matrix(1.0928617,0,0,1.0928622,-4.6430863,-14.857951)" />
      <ellipse
         style="fill:#ffffff;stroke:#ffffff;stroke-width:3.9;stroke-linecap:round;stroke-linejoin:round;stroke-dasharray:none;stroke-opacity:1"
         id="path11"
         cx="50.000008"
         cy="160"
         rx="37.171074"
         ry="37.171093" />
    </g>
  </g>
</svg>
