<?xml version="1.0" encoding="UTF-8" standalone="no"?>
<!-- Created with Inkscape (http://www.inkscape.org/) -->

<svg
   width="100mm"
   height="100mm"
   viewBox="0 0 100 100"
   version="1.1"
   id="svg1"
   xmlns="http://www.w3.org/2000/svg"
   xmlns:svg="http://www.w3.org/2000/svg">
  <defs
     id="defs1" />
  <g
     id="layer1"
     transform="translate(-6.4217555e-6,-110)">
    <g
       id="g11"
       style="fill:#ffffff;stroke:#ffffff;stroke-width:3.9;stroke-dasharray:none;stroke-opacity:1">
      <path
         style="fill:#ffffff;stroke:#ffffff;stroke-width:3.56861;stroke-linecap:round;stroke-linejoin:round;stroke-dasharray:none;stroke-opacity:1"
         id="path8"
         d="M 93.96715,171.85684 C 92.124153,167.17492 89.550588,163.1248 86.381008,160 c 0.07249,6.24959 -1.862482,12.39929 -5.169066,17.81323 4.312948,-1.09176 8.662523,-3.03237 12.755208,-5.95639 z m -12.037974,20.07235 c 0.573059,-4.99062 0.289129,-9.79378 -0.717234,-14.11596 -3.306584,5.41394 -7.984778,10.09214 -13.398723,13.39872 4.322182,1.00636 9.125342,1.2903 14.115957,0.71724 z m -20.072359,12.03796 c 2.924024,-4.09268 4.864639,-8.44226 5.956402,-12.7552 -5.413939,3.30657 -11.563628,5.24154 -17.813211,5.16905 l -1.6e-5,-1e-5 c 5e-6,1e-5 1e-5,2e-5 1.6e-5,3e-5 3.124789,3.16957 7.174898,5.74314 11.856809,7.58613 z m -23.713677,-2e-5 c 4.681926,-1.84299 8.732048,-4.41655 11.856846,-7.58613 -6.249591,0.0725 -12.399286,-1.86249 -17.813228,-5.16908 1.091757,4.31295 3.032366,8.66253 5.956382,12.75521 z M 18.070797,191.92915 c 4.990616,0.57306 9.793776,0.28913 14.115961,-0.71723 -5.413942,-3.30658 -10.092131,-7.98478 -13.398708,-13.39873 -1.006369,4.32218 -1.290305,9.12534 -0.717253,14.11596 z M 6.0328486,171.85678 c 4.0926804,2.92403 8.4422544,4.86465 12.7552014,5.95641 C 15.48148,172.39926 13.546515,166.24958 13.619008,160 l 2.8e-5,-3e-5 c -2.4e-5,1e-5 -4.8e-5,2e-5 -7.3e-5,3e-5 -3.169564,3.12478 -5.7431203,7.17488 -7.5861144,11.85678 z m 3.3e-5,-23.71367 c 1.8429904,4.68192 4.4165504,8.73205 7.5861254,11.85685 -0.07248,-6.24959 1.862499,-12.39929 5.16909,-17.81323 -4.312949,1.09176 -8.662528,3.03236 -12.7552154,5.95638 z M 18.070878,128.07077 c -0.573064,4.99062 -0.28914,9.79378 0.717219,14.11596 3.30659,-5.41394 7.984789,-10.09213 13.398738,-13.3987 -4.322181,-1.00637 -9.12534,-1.29031 -14.115957,-0.71726 z m 20.072374,-12.03794 c -2.924029,4.09268 -4.864649,8.44225 -5.956417,12.7552 5.41393,-3.30656 11.563604,-5.24152 17.813173,-5.16903 2.2e-5,0 4.4e-5,0 6.6e-5,0 -2.2e-5,-2e-5 -4.4e-5,-4e-5 -6.6e-5,-7e-5 -3.12478,-3.16955 -7.17487,-5.7431 -11.856756,-7.5861 z m 23.713677,5e-5 c -4.681928,1.84299 -8.732053,4.41655 -11.856855,7.58612 6.24959,-0.0725 12.399283,1.86251 17.813221,5.1691 -1.091752,-4.31295 -3.032356,-8.66253 -5.956366,-12.75522 z m 20.072329,12.03801 c -4.990615,-0.57307 -9.793776,-0.28915 -14.115963,0.71721 5.413939,3.30659 10.092123,7.9848 13.398694,13.39875 1.006374,-4.32218 1.290315,-9.12534 0.717269,-14.11596 z m 12.037925,20.07238 c -4.092678,-2.92403 -8.442249,-4.86465 -12.755194,-5.95642 3.306571,5.41395 5.24153,11.56365 5.169018,17.81324 3.16959,-3.12479 5.743167,-7.1749 7.586176,-11.85682 z"
         transform="matrix(1.0928617,0,0,1.0928622,-4.6430863,-14.857951)" />
      <ellipse
         style="fill:#ffffff;stroke:#ffffff;stroke-width:3.9;stroke-linecap:round;stroke-linejoin:round;stroke-dasharray:none;stroke-opacity:1"
         id="path11"
         cx="50.000008"
         cy="160"
         rx="37.171074"
         ry="37.171093" />
    </g>
  </g>
</svg>
